<?xml version="1.0" encoding="UTF-8"?>
<!-- Generator: Adobe Illustrator 19.0.0, SVG Export Plug-In . SVG Version: 6.00 Build 0)  -->
<svg version="1.1" id="Layer_1" xmlns="http://www.w3.org/2000/svg" xmlns:xlink="http://www.w3.org/1999/xlink" x="0px" y="0px" width="291.3px" height="167.3px" viewBox="0 0 291.3 167.3" style="enable-background:new 0 0 291.3 167.3;" xml:space="preserve">
<style type="text/css">
	.st0{fill:#FFFFFF;stroke:#E0E1E0;stroke-width:3.7032;}
	.st1{fill:#EA1D25;}
	.st2{fill:#1FA1DB;}
	.st3{fill:#7474B7;}
	.st4{fill:#231F20;}
	.st5{fill:#F69E1F;}
	.st6{fill:#010101;}
</style>
<g>
	<path class="st0" d="M8.4,1.7h275c4.2,0,6.7,2.5,6.7,5.9v151c0,4.2-2.5,6.7-6.7,6.7H8.4c-3.4,0-5.9-2.5-5.9-6.7V7.6   C2.5,4.2,5.1,1.7,8.4,1.7z"/>
	<circle class="st1" cx="116.4" cy="69.2" r="50.6"/>
	<circle class="st2" cx="173.8" cy="69.2" r="50.6"/>
	<path class="st3" d="M167,69.2c0-16.9-9.3-32.1-21.9-40.5c-12.7,9.3-21.9,23.6-21.9,40.5s9.3,32.1,21.9,41.3   C157.7,101.2,167,86,167,69.2z"/>
	<path class="st4" d="M188.9,132.4c0,0,0.8,0,1.7,0l-0.8,2.5c-0.8,0-0.8,0-1.7,0c-2.5,0-3.4,0.8-3.4,3.4v7.6h-2.5v-13.5h2.5v1.7   C185.6,132.4,186.4,132.4,188.9,132.4L188.9,132.4z M177.1,134.9h-4.2v6.7c0,0.8,0,1.7,1.7,1.7c0.8,0,1.7,0,2.5-0.8l0.8,3.4   c-0.8,0-2.5,0.8-3.4,0.8c-4.2,0-5.1-2.5-5.1-5.1v-6.7H167v-2.5h2.5v-4.2h3.4v4.2h4.2V134.9z M139.2,138.3c0-2.5,0.8-3.4,3.4-3.4   c1.7,0,3.4,0.8,3.4,3.4H139.2L139.2,138.3z M149.3,139.2c0-4.2-2.5-6.7-6.7-6.7c-4.2,0-6.7,2.5-6.7,6.7c0,4.2,2.5,7.6,6.7,7.6   c2.5,0,4.2-0.8,5.9-2.5l-1.7-1.7c-0.8,0.8-2.5,0.8-3.4,0.8c-2.5,0-4.2-0.8-4.2-2.5h10.1C149.3,140,149.3,140,149.3,139.2   L149.3,139.2L149.3,139.2z M162.8,135.8c-0.8,0-2.5-0.8-5.1-0.8c-0.8,0-2.5,0-2.5,1.7c0,0.8,1.7,0.8,2.5,0.8h1.7   c2.5,0.8,5.1,1.7,5.1,4.2c0,2.5-2.5,5.1-6.7,5.1c-2.5,0-4.2-0.8-5.9-1.7l1.7-2.5c0.8,0.8,2.5,1.7,4.2,1.7c2.5,0,3.4-0.8,3.4-1.7   c0-0.8-0.8-1.7-2.5-1.7h-1.7c-2.5-0.8-4.2-2.5-4.2-4.2c0-3.4,1.7-4.2,5.1-4.2c2.5,0,4.2,0,5.9,0.8L162.8,135.8L162.8,135.8z    M199.9,134.9c-0.8,0-1.7,0-1.7,0c-0.8,0.8-1.7,0.8-1.7,0.8c-0.8,0.8-0.8,0.8-0.8,1.7s-0.8,0.8-0.8,1.7c0,0.8,0.8,1.7,0.8,1.7   c0,0.8,0,1.7,0.8,1.7c0,0,0.8,0.8,1.7,0.8c0,0,0.8,0,1.7,0c0,0,0.8,0,1.7,0l0.8-0.8c0.8,0,0.8-0.8,0.8-1.7c0.8,0,0.8-0.8,0.8-1.7   c0-0.8,0-0.8-0.8-1.7c0-0.8,0-0.8-0.8-1.7c0,0-0.8,0-0.8-0.8C200.7,134.9,199.9,134.9,199.9,134.9L199.9,134.9z M199.9,132.4   c0.8,0,1.7,0,2.5,0c0.8,0.8,1.7,0.8,2.5,1.7c0.8,0.8,0.8,1.7,1.7,2.5c0,0.8,0,1.7,0,2.5c0,0.8,0,2.5,0,3.4   c-0.8,0.8-0.8,1.7-1.7,1.7c-0.8,0.8-1.7,1.7-2.5,1.7c-0.8,0.8-1.7,0.8-2.5,0.8c-1.7,0-2.5,0-3.4-0.8c-0.8,0-1.7-0.8-2.5-1.7   c0,0-0.8-0.8-0.8-1.7c-0.8-0.8-0.8-2.5-0.8-3.4c0-0.8,0-1.7,0.8-2.5c0-0.8,0.8-1.7,0.8-2.5c0.8-0.8,1.7-0.8,2.5-1.7   C197.4,132.4,198.2,132.4,199.9,132.4L199.9,132.4z M121.5,139.2c0-2.5,1.7-4.2,4.2-4.2s4.2,1.7,4.2,4.2c0,2.5-1.7,4.2-4.2,4.2   S121.5,141.7,121.5,139.2L121.5,139.2z M132.4,139.2v-6.7h-3.4v1.7c-0.8-1.7-1.7-1.7-4.2-1.7c-3.4,0-6.7,2.5-6.7,6.7   c0,4.2,3.4,7.6,6.7,7.6c2.5,0,3.4-0.8,4.2-2.5v1.7h3.4V139.2z M115.6,145.9v-8.4c0-3.4-2.5-5.1-5.1-5.1c-2.5-0.8-4.2,0-5.1,1.7   c-0.8-0.8-2.5-1.7-5.1-1.7c-1.7,0-2.5,0-4.2,1.7v-1.7h-2.5v13.5H97v-7.6c0-2.5,0.8-3.4,3.4-3.4c1.7,0,2.5,0.8,2.5,3.4v7.6h3.4v-7.6   c0-2.5,0.8-3.4,3.4-3.4c1.7,0,2.5,0.8,2.5,3.4v7.6H115.6L115.6,145.9z"/>
	<path id="Fill-4_0" class="st5" d="M224.4,101.2v-1.7l0,0l-0.8,0.8v-0.8h-0.8v1.7l0,0v-1.7l0.8,1.7l0,0l0.8-1.7V101.2L224.4,101.2z    M221.8,101.2v-1.7l0,0l0,0H221l0,0l0,0v1.7H221.8L221.8,101.2L221.8,101.2z"/>
	<path id="Fill-1_1" class="st6" d="M221,144.2L221,144.2h0.8l0,0l0,0l0,0l0,0H221z M221.8,144.2L221.8,144.2L221.8,144.2   L221.8,144.2L221.8,144.2v0.8l0,0l-0.8-0.8l0,0v0.8l0,0v-0.8H221.8z M221,145.1c0.8,0,0.8,0,0.8,0l0,0l0,0c0-0.8,0-0.8,0-0.8l0,0   l0,0c0-0.8,0-0.8,0-0.8s0,0-0.8,0l0,0c0,0,0,0,0,0.8l0,0l0,0C221,144.2,221,144.2,221,145.1L221,145.1L221,145.1L221,145.1z    M221,143.4c0.8,0,0.8,0,0.8,0l0,0c0,0.8,0.8,0.8,0.8,0.8l0,0v0.8h-0.8l0,0c0,0,0,0.8-0.8,0.8v-0.8l0,0h-0.8v-0.8l0,0   C220.1,144.2,221,144.2,221,143.4L221,143.4L221,143.4z"/>
</g>
</svg>