<?xml version="1.0" encoding="UTF-8"?>
<!-- Generator: Adobe Illustrator 19.0.0, SVG Export Plug-In . SVG Version: 6.00 Build 0)  -->
<svg version="1.1" id="Layer_1" xmlns="http://www.w3.org/2000/svg" xmlns:xlink="http://www.w3.org/1999/xlink" x="0px" y="0px" width="291.3px" height="167.3px" viewBox="0 0 291.3 167.3" style="enable-background:new 0 0 291.3 167.3;" xml:space="preserve">
<style type="text/css">
	.st0{fill:#FFFFFF;stroke:#E0E1E0;stroke-width:3.7032;}
	.st1{fill:#F26122;}
	.st2{fill:#F69E1F;}
	.st3{fill:#010101;}
	.st4{fill:#EA1D25;}
</style>
<g>
	<path class="st0" d="M8.8,1.7h275c3.4,0,6.7,2.5,6.7,5.9v151c0,4.2-3.4,6.7-6.7,6.7H8.8c-3.4,0-5.9-2.5-5.9-6.7V7.6   C2.9,4.2,5.4,1.7,8.8,1.7z"/>
	<polygon id="Fill-2" class="st1" points="126,109.6 168.2,109.6 168.2,32.1 126,32.1  "/>
	<path id="Fill-4" class="st2" d="M224.7,101.2v-1.7l0,0l-0.8,0.8l-0.8-0.8l0,0v1.7l0,0v-1.7l0.8,1.7l0,0l0.8-1.7V101.2L224.7,101.2   z M221.3,101.2v-1.7h0.8l0,0h-1.7l0,0h0.8V101.2L221.3,101.2L221.3,101.2L221.3,101.2z"/>
	<path id="Fill-5" class="st2" d="M226.4,70.8c0,27-21.9,48.9-48.9,48.9c-11.8,0-21.9-4.2-30.4-10.1c11.8-9.3,18.6-22.8,18.6-38.8   c0-15.2-6.7-29.5-18.6-38.8c8.4-5.9,18.6-10.1,30.4-10.1C204.4,21.9,226.4,43.9,226.4,70.8z"/>
	<path id="XMLID_1775_" class="st3" d="M98.2,145.1v-8.4c0-3.4-1.7-5.1-5.1-5.1c-1.7,0-3.4,0.8-4.2,2.5c-0.8-1.7-2.5-2.5-4.2-2.5   s-2.5,0.8-4.2,1.7v-1.7h-2.5v13.5h2.5v-7.6c0-1.7,1.7-3.4,3.4-3.4c1.7,0,2.5,1.7,2.5,3.4v7.6h3.4v-7.6c0-1.7,0.8-3.4,2.5-3.4   c1.7,0,3.4,1.7,3.4,3.4v7.6H98.2L98.2,145.1z M139.5,131.6h-4.2v-3.4h-3.4v3.4h-2.5v2.5h2.5v5.9c0,3.4,1.7,5.1,5.1,5.1   c0.8,0,2.5-0.8,3.4-0.8l-0.8-2.5c-0.8,0.8-1.7,0.8-2.5,0.8c-1.7,0-1.7-0.8-1.7-2.5v-5.9h4.2V131.6z M163.1,131.6   c-1.7,0-2.5,0.8-3.4,1.7v-1.7h-2.5v13.5h2.5v-7.6c0-1.7,0.8-3.4,2.5-3.4c0.8,0,1.7,0,1.7,0l0.8-2.5   C164.8,131.6,163.9,131.6,163.1,131.6L163.1,131.6z M127.7,133.3c-1.7-0.8-3.4-1.7-5.1-1.7c-3.4,0-5.9,1.7-5.9,4.2s1.7,3.4,5.1,3.4   l0.8,0.8c1.7,0,2.5,0,2.5,0.8s-0.8,1.7-3.4,1.7c-1.7,0-3.4-0.8-4.2-0.8l-0.8,1.7c0.8,0.8,3.4,1.7,5.1,1.7c4.2,0,5.9-1.7,5.9-4.2   s-1.7-3.4-4.2-4.2h-1.7c-0.8,0-1.7,0-1.7-0.8c0-0.8,0.8-1.7,2.5-1.7s2.5,0.8,3.4,0.8L127.7,133.3L127.7,133.3z M201.9,131.6   c-1.7,0-3.4,0.8-3.4,1.7v-1.7h-3.4v13.5h3.4v-7.6c0-1.7,0.8-3.4,2.5-3.4c0,0,0.8,0,1.7,0l0.8-2.5   C202.7,131.6,201.9,131.6,201.9,131.6L201.9,131.6z M165.6,138.3c0,4.2,3.4,6.7,6.7,6.7c2.5,0,3.4-0.8,5.1-1.7l-1.7-1.7   c-0.8,0-1.7,0.8-3.4,0.8s-3.4-1.7-3.4-4.2s1.7-4.2,3.4-4.2s2.5,0.8,3.4,1.7l1.7-2.5c-1.7-0.8-2.5-1.7-5.1-1.7   C169,131.6,165.6,134.1,165.6,138.3L165.6,138.3L165.6,138.3z M191.8,138.3v-6.7h-2.5v1.7c-0.8-0.8-2.5-1.7-4.2-1.7   c-3.4,0-6.7,2.5-6.7,6.7c0,4.2,3.4,6.7,6.7,6.7c1.7,0,3.4-0.8,4.2-1.7v1.7h2.5V138.3z M181.7,138.3c0-2.5,1.7-4.2,3.4-4.2   c2.5,0,4.2,1.7,4.2,4.2s-1.7,4.2-4.2,4.2C183.3,142.5,181.7,140.9,181.7,138.3L181.7,138.3z M147.9,131.6c-3.4,0-5.9,2.5-5.9,6.7   c0,4.2,2.5,6.7,5.9,6.7c2.5,0,4.2-0.8,5.9-1.7l-1.7-1.7c-0.8,0-2.5,0.8-3.4,0.8c-1.7,0-3.4-0.8-4.2-3.4h9.3v-0.8   C153.8,134.1,152.1,131.6,147.9,131.6L147.9,131.6L147.9,131.6z M147.9,134.1c1.7,0,3.4,0.8,3.4,3.4h-6.7   C145.4,135.8,146.2,134.1,147.9,134.1L147.9,134.1L147.9,134.1z M217.1,138.3v-11.8h-2.5v6.7c-0.8-0.8-2.5-1.7-4.2-1.7   c-3.4,0-5.9,2.5-5.9,6.7c0,4.2,2.5,6.7,5.9,6.7c1.7,0,3.4-0.8,4.2-1.7v1.7h2.5V138.3L217.1,138.3z M207,138.3   c0-2.5,1.7-4.2,4.2-4.2c1.7,0,3.4,1.7,3.4,4.2s-1.7,4.2-3.4,4.2C208.6,142.5,207,140.9,207,138.3L207,138.3z M114.2,138.3v-6.7   h-3.4v1.7c-0.8-0.8-1.7-1.7-3.4-1.7c-4.2,0-6.7,2.5-6.7,6.7c0,4.2,2.5,6.7,6.7,6.7c1.7,0,3.4-0.8,3.4-1.7v1.7h3.4V138.3z    M103.2,138.3c0-2.5,1.7-4.2,4.2-4.2s4.2,1.7,4.2,4.2s-1.7,4.2-4.2,4.2S103.2,140.9,103.2,138.3z"/>
	<path id="Fill-1" class="st3" d="M221.3,144.2L221.3,144.2L221.3,144.2L221.3,144.2L221.3,144.2L221.3,144.2L221.3,144.2   L221.3,144.2z M221.3,144.2c0,0,0,0,0.8,0l0,0l0,0H221.3l0.8,0.8h-0.8V144.2L221.3,144.2v0.8l0,0V144.2L221.3,144.2z M221.3,145.1   c0,0,0,0,0.8,0l0,0l0,0c0-0.8,0-0.8,0-0.8l0,0l0,0c0-0.8,0-0.8,0-0.8c-0.8,0-0.8,0-0.8,0l0,0c0,0,0,0,0,0.8c-0.8,0-0.8,0-0.8,0l0,0   c0,0,0,0,0,0.8C220.5,145.1,220.5,145.1,221.3,145.1L221.3,145.1L221.3,145.1z M221.3,143.4c0,0,0,0,0.8,0l0,0c0,0.8,0,0.8,0,0.8   l0,0v0.8l0,0l0,0c-0.8,0-0.8,0.8-0.8,0.8v-0.8h-0.8l0,0v-0.8l0,0c0,0,0,0,0-0.8H221.3L221.3,143.4z"/>
	<path id="Fill-3" class="st4" d="M129.4,70c0-15.2,7.6-29.5,18.6-38c-8.4-6.7-18.6-11-29.5-11C90.6,21.1,68.6,43,68.6,70   s21.9,48.9,49.8,48.9c11,0,21.1-3.4,29.5-10.1C137,99.5,129.4,86,129.4,70z"/>
</g>
</svg>