<?xml version="1.0" encoding="UTF-8"?>
<!-- Generator: Adobe Illustrator 19.0.0, SVG Export Plug-In . SVG Version: 6.00 Build 0)  -->
<svg version="1.1" id="Layer_1" xmlns="http://www.w3.org/2000/svg" xmlns:xlink="http://www.w3.org/1999/xlink" x="0px" y="0px" width="294.3px" height="170.3px" viewBox="0 0 294.3 170.3" style="enable-background:new 0 0 294.3 170.3;" xml:space="preserve">
<style type="text/css">
	.st0{fill:#FFFFFF;stroke:#E0E1E0;stroke-width:3;}
	.st1{fill:#2A2B6D;}
</style>
<path id="XMLID_70_" class="st0" d="M7.9,1.5h278.7c3.4,0,6.2,2.8,6.2,6.3v154.6c0,3.5-2.8,6.5-6.2,6.5H7.9c-3.6,0-6.4-3-6.4-6.5  V7.8C1.5,4.3,4.3,1.5,7.9,1.5z"/>
<path id="Combined-Shape" class="st1" d="M65.9,64.6c-8-5.4-15.3-7.2-16.5-7.6c-0.2,0-0.2-0.2-0.2-0.2l0.3-0.9l0,0h24.8  c6.8,0,7.4,5.4,7.4,5.4l5.4,27.2l0,0l1.7,8.9L104,56h16.9l-25.1,60.4H79.4L65.9,64.6z M132.8,116.4h-16.5L126.8,56h16.5L132.8,116.4  z M241.7,116.4h-18.3l-1.8-9.1h-19.2l-3.2,9.1h-15.7l22.5-56c0,0,1.4-4.4,6.9-4.4h16.6L241.7,116.4z M185.8,71.1  c-6.3-3.6-20.8-4.5-20.8,2.1c0,6.6,20.8,8,20.8,23.3c0,14.5-15.4,19.9-25.7,19.9s-16.9-3.3-16.9-3.3l2.3-13.1  c6.2,5,24.6,6.5,24.6-1.5c0-7.9-20.7-8.2-20.7-23.1c0-16.2,17.7-19.3,25.2-19.3c6.8,0,13.4,2.4,13.4,2.4L185.8,71.1L185.8,71.1z   M208.2,97.8h13.4l-4.8-23.3L208.2,97.8z"/>
</svg>